<mxfile host="65bd71144e">
    <diagram id="t75cTn4N3g4oMJrxAlkM" name="Page-1">
        <mxGraphModel dx="1251" dy="2050" grid="1" gridSize="10" guides="1" tooltips="1" connect="1" arrows="1" fold="1" page="1" pageScale="1" pageWidth="827" pageHeight="1169" math="0" shadow="0">
            <root>
                <mxCell id="0"/>
                <mxCell id="1" parent="0"/>
                <mxCell id="2" value=" Activity Diagram Mengelola Bobot " style="shape=table;childLayout=tableLayout;startSize=40;collapsible=0;recursiveResize=0;expand=0;strokeColor=default;align=left;verticalAlign=middle;fontFamily=Helvetica;fontSize=15;fontColor=default;fillColor=none;fontStyle=1;strokeWidth=3;" parent="1" vertex="1">
                    <mxGeometry x="25" width="785.0000000000002" height="950" as="geometry"/>
                </mxCell>
                <mxCell id="3" value="" style="shape=tableRow;horizontal=0;swimlaneHead=0;swimlaneBody=0;top=0;left=0;strokeColor=inherit;bottom=0;right=0;dropTarget=0;fontStyle=1;fillColor=none;points=[[0,0.5],[1,0.5]];portConstraint=eastwest;startSize=40;collapsible=0;recursiveResize=0;expand=0;align=center;verticalAlign=middle;fontFamily=Helvetica;fontSize=14;fontColor=default;strokeWidth=3;" parent="2" vertex="1">
                    <mxGeometry y="40" width="785.0000000000002" height="910" as="geometry"/>
                </mxCell>
                <mxCell id="4" value="USER    " style="swimlane;swimlaneHead=0;swimlaneBody=0;fontStyle=1;strokeColor=inherit;connectable=0;fillColor=none;startSize=40;collapsible=0;recursiveResize=0;expand=0;align=center;verticalAlign=middle;fontFamily=Helvetica;fontSize=14;fontColor=default;strokeWidth=3;" parent="3" vertex="1">
                    <mxGeometry x="40" width="380" height="910" as="geometry">
                        <mxRectangle width="380" height="910" as="alternateBounds"/>
                    </mxGeometry>
                </mxCell>
                <mxCell id="5" style="edgeStyle=none;html=1;exitX=0.5;exitY=1;exitDx=0;exitDy=0;fontFamily=Helvetica;fontSize=14;fontColor=default;strokeWidth=3;fontStyle=1" parent="4" source="6" target="7" edge="1">
                    <mxGeometry relative="1" as="geometry"/>
                </mxCell>
                <mxCell id="6" value="" style="ellipse;whiteSpace=wrap;html=1;aspect=fixed;strokeColor=default;align=center;verticalAlign=middle;fontFamily=Helvetica;fontSize=14;fontColor=default;fillColor=light-dark(#464444, #ededed);strokeWidth=3;fontStyle=1" parent="4" vertex="1">
                    <mxGeometry x="130" y="50" width="20" height="20" as="geometry"/>
                </mxCell>
                <mxCell id="7" value="Memilih Menu Bobot Penilaian" style="rounded=1;whiteSpace=wrap;html=1;strokeColor=default;align=center;verticalAlign=middle;fontFamily=Helvetica;fontSize=14;fontColor=default;fillColor=none;strokeWidth=3;fontStyle=1" parent="4" vertex="1">
                    <mxGeometry x="40" y="120" width="200" height="80" as="geometry"/>
                </mxCell>
                <mxCell id="8" value="simpan" style="rounded=1;whiteSpace=wrap;html=1;strokeColor=default;align=center;verticalAlign=middle;fontFamily=Helvetica;fontSize=14;fontColor=default;fillColor=none;strokeWidth=3;fontStyle=1" parent="4" vertex="1">
                    <mxGeometry x="15" y="390" width="90" height="20" as="geometry"/>
                </mxCell>
                <mxCell id="9" value="Isi Form Matrix Berpasangan" style="rounded=1;whiteSpace=wrap;html=1;strokeColor=default;align=center;verticalAlign=middle;fontFamily=Helvetica;fontSize=14;fontColor=default;fillColor=none;strokeWidth=3;fontStyle=1" parent="4" vertex="1">
                    <mxGeometry x="30" y="660" width="200" height="80" as="geometry"/>
                </mxCell>
                <mxCell id="10" value="" style="endArrow=classic;html=1;fontFamily=Helvetica;fontSize=14;fontColor=default;entryX=0;entryY=0.5;entryDx=0;entryDy=0;strokeWidth=3;fontStyle=1" parent="4" target="27" edge="1">
                    <mxGeometry width="50" height="50" relative="1" as="geometry">
                        <mxPoint x="240" y="159.5" as="sourcePoint"/>
                        <mxPoint x="360" y="159.5" as="targetPoint"/>
                    </mxGeometry>
                </mxCell>
                <mxCell id="11" value="&lt;div&gt;&lt;div&gt;&lt;br&gt;&lt;/div&gt;&lt;/div&gt;" style="rhombus;whiteSpace=wrap;html=1;strokeColor=default;align=center;verticalAlign=middle;fontFamily=Helvetica;fontSize=14;fontColor=default;fillColor=none;strokeWidth=3;fontStyle=1" parent="4" vertex="1">
                    <mxGeometry x="120" y="240" width="80" height="60" as="geometry"/>
                </mxCell>
                <mxCell id="12" value="Edit" style="rounded=1;whiteSpace=wrap;html=1;strokeColor=default;align=center;verticalAlign=middle;fontFamily=Helvetica;fontSize=14;fontColor=default;fillColor=none;strokeWidth=3;fontStyle=1" parent="4" vertex="1">
                    <mxGeometry x="120" y="390" width="90" height="20" as="geometry"/>
                </mxCell>
                <mxCell id="13" value="Clear" style="rounded=1;whiteSpace=wrap;html=1;strokeColor=default;align=center;verticalAlign=middle;fontFamily=Helvetica;fontSize=14;fontColor=default;fillColor=none;strokeWidth=3;fontStyle=1" parent="4" vertex="1">
                    <mxGeometry x="270" y="260" width="90" height="20" as="geometry"/>
                </mxCell>
                <mxCell id="14" value="&lt;div&gt;&lt;div&gt;&lt;br&gt;&lt;/div&gt;&lt;/div&gt;" style="rhombus;whiteSpace=wrap;html=1;strokeColor=default;align=center;verticalAlign=middle;fontFamily=Helvetica;fontSize=14;fontColor=default;fillColor=none;strokeWidth=3;fontStyle=1" parent="4" vertex="1">
                    <mxGeometry x="120" y="475" width="80" height="70" as="geometry"/>
                </mxCell>
                <mxCell id="15" value="" style="edgeStyle=elbowEdgeStyle;elbow=vertical;endArrow=classic;html=1;curved=0;rounded=0;endSize=8;startSize=8;entryX=0.5;entryY=0;entryDx=0;entryDy=0;exitX=0;exitY=0.5;exitDx=0;exitDy=0;strokeWidth=3;fontSize=14;fontStyle=1" parent="4" source="11" target="8" edge="1">
                    <mxGeometry width="50" height="50" relative="1" as="geometry">
                        <mxPoint x="50" y="280" as="sourcePoint"/>
                        <mxPoint x="100" y="230" as="targetPoint"/>
                        <Array as="points">
                            <mxPoint x="70" y="270"/>
                        </Array>
                    </mxGeometry>
                </mxCell>
                <mxCell id="16" value="" style="endArrow=classic;html=1;entryX=0;entryY=0.5;entryDx=0;entryDy=0;strokeWidth=3;fontSize=14;fontStyle=1" parent="4" target="13" edge="1">
                    <mxGeometry width="50" height="50" relative="1" as="geometry">
                        <mxPoint x="200" y="270" as="sourcePoint"/>
                        <mxPoint x="250" y="220" as="targetPoint"/>
                    </mxGeometry>
                </mxCell>
                <mxCell id="17" value="" style="edgeStyle=elbowEdgeStyle;elbow=horizontal;endArrow=classic;html=1;curved=0;rounded=0;endSize=8;startSize=8;fontFamily=Helvetica;fontSize=14;fontColor=default;entryX=0;entryY=0.5;entryDx=0;entryDy=0;exitX=0.5;exitY=1;exitDx=0;exitDy=0;strokeWidth=3;fontStyle=1" parent="4" source="8" target="14" edge="1">
                    <mxGeometry width="50" height="50" relative="1" as="geometry">
                        <mxPoint x="200" y="740" as="sourcePoint"/>
                        <mxPoint x="200" y="460" as="targetPoint"/>
                        <Array as="points">
                            <mxPoint x="60" y="460"/>
                        </Array>
                    </mxGeometry>
                </mxCell>
                <mxCell id="18" value="[menu input bobot]" style="text;html=1;align=center;verticalAlign=middle;resizable=0;points=[];autosize=1;strokeColor=none;fillColor=none;strokeWidth=3;fontSize=14;fontStyle=1" parent="4" vertex="1">
                    <mxGeometry y="230" width="140" height="30" as="geometry"/>
                </mxCell>
                <mxCell id="19" value="[menu update bobot]" style="text;html=1;align=center;verticalAlign=middle;resizable=0;points=[];autosize=1;strokeColor=none;fillColor=none;strokeWidth=3;fontSize=14;fontStyle=1" parent="4" vertex="1">
                    <mxGeometry x="155" y="300" width="150" height="30" as="geometry"/>
                </mxCell>
                <mxCell id="20" value="Klik Tombol Simpan" style="rounded=1;whiteSpace=wrap;html=1;strokeWidth=3;fontSize=14;fontStyle=1" parent="4" vertex="1">
                    <mxGeometry x="70" y="810" width="120" height="40" as="geometry"/>
                </mxCell>
                <mxCell id="21" style="edgeStyle=none;html=1;fontFamily=Helvetica;fontSize=14;fontColor=default;exitX=0.5;exitY=1;exitDx=0;exitDy=0;entryX=0.5;entryY=0;entryDx=0;entryDy=0;strokeWidth=3;fontStyle=1" parent="4" source="9" target="20" edge="1">
                    <mxGeometry relative="1" as="geometry">
                        <mxPoint x="120" y="700" as="sourcePoint"/>
                        <mxPoint x="120" y="810" as="targetPoint"/>
                    </mxGeometry>
                </mxCell>
                <mxCell id="22" value="" style="endArrow=classic;html=1;exitX=0.5;exitY=1;exitDx=0;exitDy=0;strokeWidth=3;fontSize=14;fontStyle=1" parent="4" source="11" edge="1">
                    <mxGeometry width="50" height="50" relative="1" as="geometry">
                        <mxPoint x="395" y="460" as="sourcePoint"/>
                        <mxPoint x="160" y="389" as="targetPoint"/>
                    </mxGeometry>
                </mxCell>
                <mxCell id="23" value="[menu clear bobot]" style="text;html=1;align=center;verticalAlign=middle;resizable=0;points=[];autosize=1;strokeColor=none;fillColor=none;strokeWidth=3;fontSize=14;fontStyle=1" parent="4" vertex="1">
                    <mxGeometry x="190" y="230" width="140" height="30" as="geometry"/>
                </mxCell>
                <mxCell id="24" style="edgeStyle=none;html=1;fontFamily=Helvetica;fontSize=14;fontColor=default;exitX=0.5;exitY=1;exitDx=0;exitDy=0;entryX=0.5;entryY=0;entryDx=0;entryDy=0;strokeWidth=3;fontStyle=1" parent="4" edge="1">
                    <mxGeometry relative="1" as="geometry">
                        <mxPoint x="159.41" y="410" as="sourcePoint"/>
                        <mxPoint x="159.41" y="480" as="targetPoint"/>
                    </mxGeometry>
                </mxCell>
                <mxCell id="25" value="SYSTEM" style="swimlane;swimlaneHead=0;swimlaneBody=0;fontStyle=1;strokeColor=inherit;connectable=0;fillColor=none;startSize=40;collapsible=0;recursiveResize=0;expand=0;align=center;verticalAlign=middle;fontFamily=Helvetica;fontSize=14;fontColor=default;strokeWidth=3;" parent="3" vertex="1">
                    <mxGeometry x="420" width="365" height="910" as="geometry">
                        <mxRectangle width="365" height="910" as="alternateBounds"/>
                    </mxGeometry>
                </mxCell>
                <mxCell id="26" value="" style="ellipse;whiteSpace=wrap;html=1;aspect=fixed;strokeColor=default;align=center;verticalAlign=middle;fontFamily=Helvetica;fontSize=14;fontColor=default;fillColor=light-dark(#464444, #ededed);strokeWidth=3;fontStyle=1" parent="25" vertex="1">
                    <mxGeometry x="225" y="840" width="25" height="25" as="geometry"/>
                </mxCell>
                <mxCell id="27" value="Menampilkan Data Matrix, Normalisasi Bobot, Data Hasil Perhitungan Bobot" style="rounded=1;whiteSpace=wrap;html=1;strokeColor=default;align=center;verticalAlign=middle;fontFamily=Helvetica;fontSize=14;fontColor=default;fillColor=none;strokeWidth=3;fontStyle=1" parent="25" vertex="1">
                    <mxGeometry x="100" y="120" width="200" height="80" as="geometry"/>
                </mxCell>
                <mxCell id="28" style="edgeStyle=none;html=1;strokeWidth=3;fontSize=14;fontStyle=1" parent="25" source="29" edge="1">
                    <mxGeometry relative="1" as="geometry">
                        <mxPoint x="220" y="330" as="targetPoint"/>
                    </mxGeometry>
                </mxCell>
                <mxCell id="29" value="&lt;div&gt;&lt;div&gt;&lt;br&gt;&lt;/div&gt;&lt;/div&gt;" style="rhombus;whiteSpace=wrap;html=1;strokeColor=default;align=center;verticalAlign=middle;fontFamily=Helvetica;fontSize=14;fontColor=default;fillColor=none;strokeWidth=3;fontStyle=1" parent="25" vertex="1">
                    <mxGeometry x="180" y="330" width="80" height="70" as="geometry"/>
                </mxCell>
                <mxCell id="30" value="Menampilkan form data bobot, matrix perbandingan, normalisasi matrix" style="rounded=1;whiteSpace=wrap;html=1;strokeColor=default;align=center;verticalAlign=middle;fontFamily=Helvetica;fontSize=14;fontColor=default;fillColor=none;strokeWidth=3;fontStyle=1" parent="25" vertex="1">
                    <mxGeometry x="150" y="510" width="150" height="100" as="geometry"/>
                </mxCell>
                <mxCell id="31" value="" style="edgeStyle=elbowEdgeStyle;elbow=horizontal;endArrow=classic;html=1;curved=0;rounded=0;endSize=8;startSize=8;fontFamily=Helvetica;fontSize=14;fontColor=default;entryX=1;entryY=0.5;entryDx=0;entryDy=0;exitX=1;exitY=0.5;exitDx=0;exitDy=0;strokeWidth=3;fontStyle=1" parent="25" source="29" target="27" edge="1">
                    <mxGeometry width="50" height="50" relative="1" as="geometry">
                        <mxPoint x="300" y="440" as="sourcePoint"/>
                        <mxPoint x="350" y="390" as="targetPoint"/>
                        <Array as="points">
                            <mxPoint x="340" y="300"/>
                        </Array>
                    </mxGeometry>
                </mxCell>
                <mxCell id="32" style="edgeStyle=none;html=1;fontFamily=Helvetica;fontSize=14;fontColor=default;strokeWidth=3;fontStyle=1" parent="25" edge="1">
                    <mxGeometry relative="1" as="geometry">
                        <mxPoint x="238" y="770" as="sourcePoint"/>
                        <mxPoint x="238" y="840" as="targetPoint"/>
                    </mxGeometry>
                </mxCell>
                <mxCell id="33" value="Tidak" style="text;html=1;align=center;verticalAlign=middle;resizable=0;points=[];autosize=1;strokeColor=none;fillColor=none;fontFamily=Helvetica;fontSize=14;fontColor=default;strokeWidth=3;fontStyle=1" parent="25" vertex="1">
                    <mxGeometry x="245" y="340" width="60" height="30" as="geometry"/>
                </mxCell>
                <mxCell id="35" value="Form Input Matrix Perbandingan Berpasangan dan Bobot" style="rounded=1;whiteSpace=wrap;html=1;strokeColor=default;align=center;verticalAlign=middle;fontFamily=Helvetica;fontSize=14;fontColor=default;fillColor=none;strokeWidth=3;fontStyle=1" parent="25" vertex="1">
                    <mxGeometry x="150" y="240" width="150" height="50" as="geometry"/>
                </mxCell>
                <mxCell id="36" value="" style="endArrow=classic;html=1;fontFamily=Helvetica;fontSize=14;fontColor=default;entryX=0.5;entryY=0;entryDx=0;entryDy=0;strokeWidth=3;fontStyle=1" parent="25" target="29" edge="1">
                    <mxGeometry width="50" height="50" relative="1" as="geometry">
                        <mxPoint x="220" y="300" as="sourcePoint"/>
                        <mxPoint x="219.5" y="407" as="targetPoint"/>
                    </mxGeometry>
                </mxCell>
                <mxCell id="37" value="" style="endArrow=classic;html=1;fontFamily=Helvetica;fontSize=14;fontColor=default;exitX=0.5;exitY=1;exitDx=0;exitDy=0;entryX=0.46;entryY=-0.02;entryDx=0;entryDy=0;entryPerimeter=0;strokeWidth=3;fontStyle=1" parent="25" source="29" target="30" edge="1">
                    <mxGeometry width="50" height="50" relative="1" as="geometry">
                        <mxPoint x="230" y="310" as="sourcePoint"/>
                        <mxPoint x="220" y="430" as="targetPoint"/>
                    </mxGeometry>
                </mxCell>
                <mxCell id="49" value="" style="edgeStyle=none;html=1;strokeWidth=3;fontSize=14;fontStyle=1" edge="1" parent="25" target="26">
                    <mxGeometry relative="1" as="geometry">
                        <mxPoint x="237" y="770" as="sourcePoint"/>
                    </mxGeometry>
                </mxCell>
                <mxCell id="39" value="Menyimpan dan menampilkan data bobot" style="rounded=1;whiteSpace=wrap;html=1;strokeColor=default;align=center;verticalAlign=middle;fontFamily=Helvetica;fontSize=14;fontColor=default;fillColor=none;strokeWidth=3;fontStyle=1" parent="25" vertex="1">
                    <mxGeometry x="162.5" y="720" width="150" height="50" as="geometry"/>
                </mxCell>
                <mxCell id="43" value="" style="endArrow=classic;html=1;strokeWidth=3;fontSize=14;fontStyle=1" parent="25" edge="1">
                    <mxGeometry width="50" height="50" relative="1" as="geometry">
                        <mxPoint x="-20" y="270" as="sourcePoint"/>
                        <mxPoint x="150" y="270" as="targetPoint"/>
                    </mxGeometry>
                </mxCell>
                <mxCell id="50" value="" style="edgeStyle=elbowEdgeStyle;elbow=horizontal;endArrow=classic;html=1;curved=0;rounded=0;endSize=8;startSize=8;exitX=1;exitY=0.5;exitDx=0;exitDy=0;entryX=1;entryY=0.5;entryDx=0;entryDy=0;strokeWidth=3;fontSize=14;fontStyle=1" edge="1" parent="25" source="30" target="39">
                    <mxGeometry width="50" height="50" relative="1" as="geometry">
                        <mxPoint x="75" y="680" as="sourcePoint"/>
                        <mxPoint x="355" y="750" as="targetPoint"/>
                        <Array as="points">
                            <mxPoint x="355" y="660"/>
                        </Array>
                    </mxGeometry>
                </mxCell>
                <mxCell id="46" value="" style="edgeStyle=elbowEdgeStyle;elbow=horizontal;endArrow=classic;html=1;curved=0;rounded=0;endSize=8;startSize=8;exitX=0.5;exitY=1;exitDx=0;exitDy=0;entryX=0;entryY=0.5;entryDx=0;entryDy=0;strokeWidth=3;fontSize=14;fontStyle=1" edge="1" parent="3" source="14" target="30">
                    <mxGeometry width="50" height="50" relative="1" as="geometry">
                        <mxPoint x="495" y="540" as="sourcePoint"/>
                        <mxPoint x="545" y="490" as="targetPoint"/>
                        <Array as="points">
                            <mxPoint x="200" y="580"/>
                        </Array>
                    </mxGeometry>
                </mxCell>
                <mxCell id="48" value="" style="edgeStyle=elbowEdgeStyle;elbow=vertical;endArrow=classic;html=1;curved=0;rounded=0;endSize=8;startSize=8;entryX=0.5;entryY=0;entryDx=0;entryDy=0;strokeWidth=3;fontSize=14;fontStyle=1" edge="1" parent="3" target="9">
                    <mxGeometry width="50" height="50" relative="1" as="geometry">
                        <mxPoint x="657" y="610" as="sourcePoint"/>
                        <mxPoint x="545" y="490" as="targetPoint"/>
                    </mxGeometry>
                </mxCell>
                <mxCell id="52" value="" style="edgeStyle=elbowEdgeStyle;elbow=vertical;endArrow=classic;html=1;curved=0;rounded=0;endSize=8;startSize=8;exitX=0.5;exitY=1;exitDx=0;exitDy=0;entryX=0.5;entryY=0;entryDx=0;entryDy=0;strokeWidth=3;fontSize=14;fontStyle=1" edge="1" parent="3" source="27" target="11">
                    <mxGeometry width="50" height="50" relative="1" as="geometry">
                        <mxPoint x="495" y="540" as="sourcePoint"/>
                        <mxPoint x="545" y="490" as="targetPoint"/>
                    </mxGeometry>
                </mxCell>
                <mxCell id="55" value="" style="edgeStyle=elbowEdgeStyle;elbow=horizontal;endArrow=classic;html=1;curved=0;rounded=0;endSize=8;startSize=8;entryX=0;entryY=0.5;entryDx=0;entryDy=0;exitX=1;exitY=0.5;exitDx=0;exitDy=0;strokeWidth=3;fontSize=14;fontStyle=1" edge="1" parent="3" source="20" target="39">
                    <mxGeometry width="50" height="50" relative="1" as="geometry">
                        <mxPoint x="525" y="790" as="sourcePoint"/>
                        <mxPoint x="575" y="740" as="targetPoint"/>
                    </mxGeometry>
                </mxCell>
            </root>
        </mxGraphModel>
    </diagram>
</mxfile>